
<svg width="20" height="20" viewBox="0 0 20 20" fill="none" xmlns="http://www.w3.org/2000/svg">
<path fill-rule="evenodd" clip-rule="evenodd" d="M9.64001 0C4.31598 0 0 4.31598 0 9.64001C0 14.964 4.31598 19.28 9.64001 19.28C14.964 19.28 19.28 14.964 19.28 9.64001C19.28 4.31598 14.964 0 9.64001 0ZM9.64001 17.9655C5.04199 17.9655 1.31455 14.238 1.31455 9.64001C1.31455 5.04199 5.04199 1.31455 9.64001 1.31455C14.238 1.31455 17.9655 5.04199 17.9655 9.64001C17.9655 11.8481 17.0883 13.9657 15.527 15.527C13.9657 17.0883 11.8481 17.9655 9.64001 17.9655Z" fill="#7CB342"/>
<path fill-rule="evenodd" clip-rule="evenodd" d="M13.1455 9.2019H10.5164V6.5728C10.5164 6.2098 10.2222 5.91553 9.85917 5.91553C9.49617 5.91553 9.2019 6.2098 9.2019 6.5728V9.2019H6.5728C6.2098 9.2019 5.91553 9.49617 5.91553 9.85917C5.91553 10.2222 6.2098 10.5164 6.5728 10.5164H9.2019V13.1455C9.2019 13.5085 9.49617 13.8028 9.85917 13.8028C10.2222 13.8028 10.5164 13.5085 10.5164 13.1455V10.5164H13.1455C13.5085 10.5164 13.8028 10.2222 13.8028 9.85917C13.8028 9.49617 13.5085 9.2019 13.1455 9.2019Z" fill="#7CB342"/>
</svg>
