<svg width="46" height="26" viewBox="0 0 46 26" fill="none" xmlns="http://www.w3.org/2000/svg">
<path d="M40.8739 0H5.12567C2.29484 0 0 2.2699 0 5.06995V20.9298C0 23.7299 2.29484 25.9998 5.12567 25.9998H40.8739C43.7047 25.9998 45.9996 23.7299 45.9996 20.9298V5.06995C45.9996 2.2699 43.7047 0 40.8739 0Z" fill="#88D20F"/>
<path d="M45.9996 19.5691V20.8001C45.9996 22.1792 45.4457 23.5018 44.4598 24.477C43.4739 25.4522 42.1368 26 40.7425 26H5.25709C3.86283 26 2.52566 25.4522 1.53977 24.477C0.553871 23.5018 0 22.1792 0 20.8001V19.5691C0 20.9482 0.553871 22.2708 1.53977 23.246C2.52566 24.2212 3.86283 24.769 5.25709 24.769H40.7425C42.1368 24.769 43.4739 24.2212 44.4598 23.246C45.4457 22.2708 45.9996 20.9482 45.9996 19.5691Z" fill="#7CB342"/>
<path d="M39.5731 10.9616H38.7583V9.88783C38.7583 8.89142 38.3581 7.93582 37.6458 7.23125C36.9335 6.52668 35.9674 6.13086 34.96 6.13086C33.9527 6.13086 32.9866 6.52668 32.2742 7.23125C31.5619 7.93582 31.1618 8.89142 31.1618 9.88783V10.9616H30.3469C30.275 10.962 30.2061 10.9905 30.1554 11.0409C30.1047 11.0913 30.0762 11.1596 30.0762 11.2307V17.94C30.0762 18.2247 30.1905 18.4979 30.3941 18.6992C30.5977 18.9006 30.8738 19.0137 31.1618 19.0137H38.7596C39.0473 19.0134 39.3231 18.9001 39.5264 18.6988C39.7297 18.4974 39.8439 18.2245 39.8439 17.94V11.2307C39.8439 11.1596 39.8154 11.0913 39.7646 11.0409C39.7139 10.9905 39.645 10.962 39.5731 10.9616ZM35.7722 16.5685C35.7778 16.6062 35.775 16.6447 35.7639 16.6812C35.7528 16.7177 35.7337 16.7513 35.708 16.7797C35.6823 16.8081 35.6506 16.8306 35.6151 16.8456C35.5797 16.8605 35.5413 16.8675 35.5028 16.8662H34.4172C34.3787 16.8675 34.3403 16.8605 34.3049 16.8456C34.2694 16.8306 34.2377 16.8081 34.212 16.7797C34.1863 16.7513 34.1672 16.7177 34.1561 16.6812C34.145 16.6447 34.1422 16.6062 34.1478 16.5685L34.3186 15.0462C34.1808 14.9474 34.0686 14.8176 33.9914 14.6675C33.9142 14.5174 33.8741 14.3514 33.8744 14.183C33.8744 13.8982 33.9888 13.6251 34.1924 13.4237C34.396 13.2223 34.6721 13.1092 34.96 13.1092C35.2479 13.1092 35.5241 13.2223 35.7276 13.4237C35.9312 13.6251 36.0456 13.8982 36.0456 14.183C36.0463 14.3514 36.0063 14.5176 35.9291 14.6677C35.8518 14.8179 35.7395 14.9476 35.6014 15.0462L35.7722 16.5685ZM37.1312 10.9616H32.7941V9.88783C32.8215 9.33721 33.0619 8.81811 33.4656 8.438C33.8693 8.05789 34.4053 7.84589 34.9626 7.84589C35.52 7.84589 36.056 8.05789 36.4597 8.438C36.8633 8.81811 37.1038 9.33721 37.1312 9.88783V10.9616Z" fill="white"/>
<path d="M8.26433 7.0769C8.3783 7.0769 8.48657 7.0769 8.60054 7.0769C13.8888 7.0769 19.177 7.0769 24.4709 7.0769C24.8128 7.0769 24.8128 7.0769 24.6932 7.38462C24.3513 8.27929 24.0207 9.17966 23.6731 10.0686C23.3597 10.855 22.7386 11.2425 21.9294 11.3508C21.5305 11.4021 21.1373 11.3508 20.7498 11.2197C16.6696 9.88058 12.5895 8.54142 8.50936 7.20797C8.42389 7.17948 8.33841 7.15099 8.25293 7.11679C8.25863 7.1054 8.25863 7.0883 8.26433 7.0769Z" fill="white"/>
<path d="M8.65625 12.5018C8.8386 12.5018 8.95257 12.5018 9.06085 12.5018C13.4829 12.5018 17.9107 12.5018 22.3327 12.5018C22.7145 12.5018 22.7088 12.5018 22.572 12.8665C22.27 13.6643 21.968 14.4621 21.666 15.2599C21.2956 16.2515 20.1217 16.7814 19.039 16.3882C15.6312 15.1345 12.2292 13.8638 8.82721 12.593C8.79301 12.5816 8.75882 12.5588 8.65625 12.5018Z" fill="white"/>
<path d="M10.2021 16.6848C11.376 16.6848 12.5044 16.6848 13.6327 16.6848C14.402 16.6848 15.1713 16.7019 15.9406 16.7019C16.1229 16.7019 16.197 16.719 16.1115 16.9299C15.9064 17.4313 15.7297 17.9385 15.5246 18.44C15.2168 19.1922 14.1626 19.6253 13.4104 19.0497C12.4189 18.2861 11.3931 17.5681 10.3788 16.8273C10.3332 16.7931 10.2819 16.7532 10.2021 16.6848Z" fill="white"/>
</svg>
