<svg width="15" height="12" viewBox="0 0 15 12" fill="none" xmlns="http://www.w3.org/2000/svg">
<path fill-rule="evenodd" clip-rule="evenodd" d="M1.60318 1.73168C1.70353 1.592 1.86725 1.5 2.05001 1.5H12.45C12.6328 1.5 12.7965 1.59203 12.8969 1.73173L7.25006 5.6845L1.60318 1.73168ZM1.28833e-05 2.04493C-1.90273e-06 2.04746 -3.95798e-06 2.04998 6.69972e-06 2.05251V9.85C6.69972e-06 10.9792 0.920793 11.9 2.05001 11.9H12.45C13.5792 11.9 14.5 10.9792 14.5 9.85V2.06283C14.5002 2.05258 14.5002 2.04231 14.4999 2.03205C14.4902 0.911044 13.5732 0 12.45 0H2.05001C0.922483 0 0.002763 0.918032 1.28833e-05 2.04493ZM13 3.49052V9.85C13 10.1508 12.7508 10.4 12.45 10.4H2.05001C1.74922 10.4 1.50001 10.1508 1.50001 9.85V3.49044L6.81997 7.21441C7.07821 7.39518 7.42192 7.39518 7.68016 7.21441L13 3.49052Z" fill="#848C99" fill-opacity="0.8"/>
</svg>
