<svg width="38" height="12" viewBox="0 0 38 12" fill="none" xmlns="http://www.w3.org/2000/svg">
<path d="M21.0094 3.21476C21.0349 3.17392 21.0502 3.14329 21.0655 3.11267C21.2544 2.58182 21.2544 2.58182 21.8209 2.58182C22.51 2.58182 23.1991 2.58692 23.8882 2.57672C24.0719 2.57672 24.0975 2.62265 24.0413 2.7962C23.1787 5.50659 22.3212 8.21698 21.4636 10.9274C21.433 11.0295 21.4228 11.1366 21.2595 11.1366C20.3611 11.1315 19.4576 11.1315 18.5236 11.1315C18.6001 10.8712 18.6716 10.6313 18.7481 10.3863C18.6205 10.3761 18.5746 10.4578 18.5082 10.5037C17.1862 11.397 15.7621 11.6011 14.2615 11.0652C13.4856 10.7896 13.0568 10.1668 12.9241 9.36545C12.4954 6.78267 14.2717 3.66904 16.7115 2.72985C17.7477 2.33171 18.8247 2.21941 19.9119 2.52567C20.3407 2.65328 20.7082 2.88297 21.0094 3.21476ZM20.1161 5.86389C20.162 4.64396 19.5087 4.28156 18.6563 4.32749C18.1509 4.35812 17.712 4.5674 17.3547 4.90939C16.3389 5.8741 15.8846 7.06851 16.0276 8.46709C16.0735 8.94179 16.39 9.26847 16.8187 9.35524C17.518 9.49306 18.1663 9.34503 18.6971 8.87033C19.6516 8.01281 19.9528 6.84902 20.1161 5.86389Z" fill="#88D20F"/>
<path d="M24.2661 8.58473C24.6643 8.58473 25.0675 8.58983 25.4656 8.58473C25.6086 8.58473 25.6698 8.60514 25.6851 8.77359C25.7566 9.49329 26.2109 9.67195 26.8183 9.65663C26.9816 9.65153 27.1552 9.62601 27.3134 9.54944C27.8647 9.28402 27.9412 8.63067 27.4512 8.26826C27.1654 8.05388 26.8336 7.90585 26.5018 7.77314C26.1241 7.62001 25.7413 7.47709 25.3738 7.30354C24.2049 6.75228 23.9701 5.80288 24.3529 4.66462C24.6081 3.90918 25.1441 3.37323 25.8383 3.02103C27.145 2.35747 28.5282 2.27069 29.9319 2.6382C31.0293 2.92405 31.6061 3.73053 31.6368 4.86879C31.6419 5.09848 31.5755 5.17505 31.3356 5.16994C30.5802 5.15463 29.8196 5.15973 29.0642 5.16484C28.8855 5.16484 28.8039 5.14442 28.7834 4.93004C28.7324 4.36346 28.2679 4.09293 27.732 4.28179C27.4716 4.37367 27.3032 4.55232 27.2624 4.83306C27.2215 5.124 27.3287 5.34859 27.5788 5.50683C27.9208 5.7161 28.2883 5.86923 28.6711 5.99684C29.0336 6.12445 29.3858 6.26227 29.7226 6.45112C30.7792 7.03812 31.0804 7.90075 30.7027 9.1462C30.4679 9.92206 29.9319 10.4835 29.2224 10.8204C27.635 11.5861 25.9812 11.6933 24.3223 11.096C23.3269 10.7387 22.8216 9.90674 22.8318 8.85526C22.8318 8.65108 22.8829 8.56941 23.1023 8.57962C23.4852 8.59494 23.8782 8.57962 24.2661 8.58473Z" fill="#88D20F"/>
<path d="M35.8937 9.37076C35.715 9.93734 35.5415 10.4886 35.3679 11.0399C35.3322 11.1522 35.2454 11.1726 35.1535 11.1879C34.245 11.341 33.3313 11.4227 32.4125 11.29C32.1012 11.244 31.7949 11.1624 31.5397 10.9582C31.1467 10.6315 31.0956 10.1977 31.1671 9.72806C31.3253 8.69699 31.6928 7.72717 32.0042 6.73694C32.6371 4.72584 33.2803 2.72495 33.9081 0.713851C33.9745 0.49947 34.0663 0.42801 34.296 0.433114C35.077 0.448427 35.863 0.443323 36.644 0.438218C36.838 0.438218 36.8737 0.484157 36.8124 0.673017C36.6134 1.27022 36.4347 1.87253 36.2408 2.46973C36.1897 2.62797 36.2203 2.67391 36.3888 2.6688C36.8737 2.65859 37.3586 2.6688 37.8435 2.6637C38.0018 2.65859 38.0273 2.70964 37.9762 2.85256C37.818 3.32726 37.6649 3.80706 37.5219 4.28687C37.4811 4.42979 37.4045 4.46552 37.2667 4.46041C36.7818 4.45531 36.2969 4.46042 35.812 4.45531C35.6946 4.45531 35.6078 4.46042 35.5619 4.60844C35.1944 5.80795 34.7758 6.99726 34.4389 8.20698C34.3981 8.36011 34.3624 8.52345 34.3522 8.68168C34.3266 9.11044 34.5308 9.33503 34.9545 9.36566C35.1076 9.37587 35.2607 9.37586 35.4139 9.37586C35.5619 9.37586 35.7048 9.37076 35.8937 9.37076Z" fill="#88D20F"/>
<path d="M0.0102086 0.16748C0.112295 0.16748 0.209277 0.16748 0.311363 0.16748C5.04816 0.16748 9.78497 0.16748 14.5269 0.16748C14.8331 0.16748 14.8331 0.16748 14.7259 0.443113C14.4197 1.24449 14.1236 2.05097 13.8123 2.84724C13.5315 3.55164 12.9752 3.89873 12.2503 3.99571C11.893 4.04165 11.5408 3.99571 11.1938 3.87831C7.53907 2.6788 3.88438 1.47929 0.229694 0.28488C0.153129 0.259358 0.0765647 0.233837 0 0.203211C0.00510431 0.193002 0.00510431 0.177689 0.0102086 0.16748Z" fill="#88D20F"/>
<path d="M0.362183 5.02686C0.525521 5.02686 0.627607 5.02686 0.724589 5.02686C4.68553 5.02686 8.65158 5.02686 12.6125 5.02686C12.9545 5.02686 12.9494 5.02686 12.8269 5.35353C12.5564 6.06814 12.2859 6.78274 12.0153 7.49734C11.6835 8.38549 10.6321 8.86019 9.66224 8.508C6.60986 7.38505 3.56259 6.24679 0.515312 5.10852C0.484686 5.09832 0.45406 5.0779 0.362183 5.02686Z" fill="#88D20F"/>
<path d="M1.74567 8.7738C2.79715 8.7738 3.80781 8.7738 4.81846 8.7738C5.50754 8.7738 6.19663 8.78912 6.88571 8.78912C7.04905 8.78912 7.1154 8.80443 7.03884 8.99329C6.85508 9.44247 6.69685 9.89675 6.51309 10.3459C6.23746 11.0197 5.29316 11.4076 4.61939 10.8921C3.73124 10.2081 2.81247 9.56497 1.9039 8.90141C1.86307 8.87079 1.81713 8.83506 1.74567 8.7738Z" fill="#88D20F"/>
</svg>
