<svg width="66" height="20" viewBox="0 0 66 20" fill="none" xmlns="http://www.w3.org/2000/svg">
<path d="M36.4899 5.29279C36.5342 5.22187 36.5608 5.16868 36.5874 5.11549C36.9154 4.19349 36.9154 4.19349 37.8995 4.19349C39.0963 4.19349 40.2931 4.20235 41.49 4.18462C41.8091 4.18462 41.8535 4.26441 41.7559 4.56583C40.2577 9.27335 38.7683 13.9809 37.2789 18.6884C37.2257 18.8657 37.208 19.0519 36.9243 19.0519C35.364 19.043 33.7948 19.043 32.1725 19.043C32.3054 18.5909 32.4296 18.1742 32.5625 17.7487C32.3409 17.7309 32.2611 17.8728 32.1459 17.9526C29.8497 19.504 27.3763 19.8586 24.7699 18.9278C23.4223 18.449 22.6776 17.3674 22.4471 15.9756C21.7024 11.4897 24.7876 6.08181 29.0252 4.45058C30.8249 3.75908 32.6955 3.56404 34.5838 4.09597C35.3285 4.3176 35.9668 4.71654 36.4899 5.29279ZM34.9385 9.89393C35.0182 7.7751 33.8835 7.14566 32.403 7.22545C31.5253 7.27864 30.7629 7.64212 30.1423 8.2361C28.3781 9.91166 27.5891 11.9862 27.8373 14.4153C27.9171 15.2398 28.4667 15.8071 29.2114 15.9579C30.426 16.1972 31.5519 15.9401 32.4739 15.1156C34.1317 13.6263 34.6548 11.6049 34.9385 9.89393Z" fill="#88D20F"/>
<path d="M42.1465 14.6193C42.838 14.6193 43.5383 14.6282 44.2298 14.6193C44.4781 14.6193 44.5844 14.6548 44.611 14.9474C44.7352 16.1974 45.5242 16.5077 46.5792 16.4811C46.8629 16.4722 47.1643 16.4279 47.4391 16.2949C48.3966 15.8339 48.5295 14.6991 47.6785 14.0697C47.182 13.6973 46.6058 13.4403 46.0295 13.2098C45.3735 12.9438 44.7086 12.6956 44.0703 12.3941C42.0401 11.4367 41.6323 9.78771 42.2972 7.81073C42.7404 6.49866 43.6713 5.56779 44.877 4.95608C47.1465 3.80358 49.5491 3.65287 51.987 4.29118C53.8931 4.78764 54.8949 6.18837 54.9481 8.16535C54.9569 8.56429 54.8417 8.69727 54.425 8.68841C53.1129 8.66181 51.792 8.67068 50.4799 8.67954C50.1696 8.67954 50.0278 8.64408 49.9923 8.27173C49.9037 7.28768 49.0969 6.81781 48.1661 7.14583C47.7139 7.30541 47.4214 7.6157 47.3504 8.10329C47.2795 8.60862 47.4657 8.9987 47.9001 9.27352C48.4941 9.637 49.1324 9.90296 49.7973 10.1246C50.4267 10.3462 51.0384 10.5856 51.6236 10.9136C53.4587 11.9331 53.9818 13.4314 53.3257 15.5945C52.9179 16.9421 51.987 17.9173 50.7548 18.5024C47.9976 19.8322 45.1252 20.0184 42.244 18.9811C40.5152 18.3605 39.6376 16.9155 39.6553 15.0892C39.6553 14.7346 39.7439 14.5928 40.1252 14.6105C40.7901 14.6371 41.4727 14.6105 42.1465 14.6193Z" fill="#88D20F"/>
<path d="M62.3416 15.9846C62.0313 16.9687 61.7299 17.9261 61.4285 18.8836C61.3664 19.0786 61.2157 19.1141 61.0562 19.1407C59.4781 19.4066 57.8912 19.5485 56.2954 19.318C55.7547 19.2382 55.2227 19.0963 54.7795 18.7417C54.0968 18.1743 54.0082 17.4208 54.1323 16.6052C54.4071 14.8144 55.0454 13.1299 55.5862 11.4101C56.6855 7.9171 57.8026 4.44187 58.893 0.948912C59.0082 0.576566 59.1678 0.45245 59.5668 0.461316C60.9232 0.487912 62.2884 0.479046 63.6448 0.470181C63.9817 0.470181 64.0438 0.549969 63.9374 0.877988C63.5917 1.91524 63.2814 2.96135 62.9445 3.9986C62.8558 4.27343 62.909 4.35322 63.2016 4.34435C64.0438 4.32662 64.886 4.34435 65.7282 4.33549C66.003 4.32662 66.0474 4.41528 65.9587 4.66351C65.6839 5.48799 65.4179 6.32133 65.1697 7.15468C65.0988 7.40291 64.9658 7.46497 64.7264 7.4561C63.8842 7.44724 63.042 7.4561 62.1998 7.44724C61.9959 7.44724 61.8452 7.4561 61.7654 7.7132C61.1271 9.79656 60.4001 11.8622 59.815 13.9633C59.7441 14.2293 59.682 14.5129 59.6643 14.7878C59.62 15.5325 59.9746 15.9225 60.7104 15.9757C60.9764 15.9935 61.2423 15.9935 61.5083 15.9935C61.7654 15.9935 62.0136 15.9846 62.3416 15.9846Z" fill="#88D20F"/>
<path d="M0.0177308 0C0.195038 0 0.363481 0 0.540788 0C8.76786 0 16.9949 0 25.2309 0C25.7628 0 25.7628 0 25.5766 0.478731C25.0447 1.8706 24.5305 3.27133 23.9897 4.65433C23.5021 5.87775 22.5358 6.48059 21.2769 6.64904C20.6563 6.72882 20.0446 6.64904 19.4418 6.44513C13.0942 4.36177 6.74656 2.2784 0.398942 0.203904C0.265961 0.159577 0.132981 0.11525 0 0.0620577C0.00886538 0.0443269 0.00886538 0.0177308 0.0177308 0Z" fill="#88D20F"/>
<path d="M0.629028 8.43997C0.912721 8.43997 1.09003 8.43997 1.25847 8.43997C8.13801 8.43997 15.0264 8.43997 21.9059 8.43997C22.4999 8.43997 22.4911 8.43997 22.2783 9.00736C21.8084 10.2485 21.3386 11.4897 20.8687 12.7308C20.2924 14.2734 18.4662 15.0979 16.7818 14.4862C11.4803 12.5358 6.18762 10.5588 0.89499 8.58182C0.841798 8.56409 0.788605 8.52863 0.629028 8.43997Z" fill="#88D20F"/>
<path d="M3.03198 14.9476C4.85825 14.9476 6.6136 14.9476 8.36894 14.9476C9.56577 14.9476 10.7626 14.9742 11.9594 14.9742C12.2431 14.9742 12.3584 15.0008 12.2254 15.3288C11.9062 16.109 11.6314 16.898 11.3122 17.6782C10.8335 18.8484 9.19342 19.5222 8.02319 18.6268C6.48062 17.4388 4.88485 16.3218 3.30681 15.1693C3.23589 15.1161 3.1561 15.054 3.03198 14.9476Z" fill="#88D20F"/>
</svg>
