<svg width="52" height="16" viewBox="0 0 52 16" fill="none" xmlns="http://www.w3.org/2000/svg">
<path d="M28.4385 4.12499C28.4731 4.06972 28.4938 4.02826 28.5145 3.98681C28.7702 3.26824 28.7701 3.26824 29.5371 3.26824C30.4698 3.26824 31.4026 3.27515 32.3353 3.26134C32.5841 3.26134 32.6186 3.32352 32.5426 3.55843C31.3749 7.22725 30.2142 10.8961 29.0534 14.5649C29.012 14.7031 28.9982 14.8481 28.7771 14.8481C27.561 14.8412 26.3381 14.8412 25.0737 14.8412C25.1773 14.4889 25.2741 14.1641 25.3777 13.8325C25.205 13.8187 25.1428 13.9292 25.053 13.9914C23.2635 15.2005 21.3358 15.4769 19.3045 14.7514C18.2543 14.3783 17.6739 13.5354 17.4943 12.4506C16.9139 8.95456 19.3183 4.73992 22.6209 3.46861C24.0235 2.92969 25.4813 2.77769 26.953 3.19224C27.5334 3.36497 28.0309 3.67589 28.4385 4.12499ZM27.2294 7.71089C27.2916 6.05958 26.4072 5.56903 25.2533 5.63121C24.5693 5.67266 23.9751 5.95594 23.4915 6.41886C22.1165 7.72471 21.5016 9.34148 21.6951 11.2346C21.7573 11.8772 22.1856 12.3194 22.766 12.4368C23.7126 12.6234 24.5901 12.423 25.3086 11.7804C26.6006 10.6197 27.0083 9.04438 27.2294 7.71089Z" fill="white"/>
<path d="M32.8471 11.3937C33.386 11.3937 33.9319 11.4006 34.4708 11.3937C34.6642 11.3937 34.7471 11.4213 34.7679 11.6493C34.8646 12.6235 35.4795 12.8653 36.3017 12.8446C36.5228 12.8377 36.7577 12.8032 36.9719 12.6995C37.7181 12.3402 37.8218 11.4559 37.1585 10.9653C36.7716 10.6751 36.3225 10.4747 35.8734 10.2951C35.3621 10.0878 34.8439 9.89437 34.3464 9.65946C32.7642 8.91326 32.4464 7.62814 32.9646 6.08738C33.31 5.06481 34.0355 4.33934 34.9752 3.8626C36.7439 2.9644 38.6163 2.84694 40.5164 3.3444C42.0019 3.73132 42.7826 4.82298 42.8241 6.36375C42.831 6.67466 42.7411 6.7783 42.4164 6.77139C41.3938 6.75066 40.3644 6.75757 39.3418 6.76448C39.1 6.76448 38.9894 6.73685 38.9618 6.44666C38.8927 5.67973 38.264 5.31354 37.5385 5.56918C37.1861 5.69355 36.9581 5.93537 36.9028 6.31538C36.8476 6.70921 36.9926 7.01322 37.3312 7.2274C37.7941 7.51068 38.2916 7.71796 38.8098 7.89069C39.3003 8.06342 39.7771 8.24997 40.2331 8.50561C41.6633 9.30018 42.0709 10.4678 41.5597 12.1537C41.2418 13.2039 40.5164 13.9639 39.556 14.4199C37.4072 15.4563 35.1686 15.6014 32.9231 14.793C31.5758 14.3094 30.8918 13.1832 30.9056 11.7599C30.9056 11.4835 30.9747 11.373 31.2718 11.3868C31.79 11.4075 32.322 11.3868 32.8471 11.3937Z" fill="white"/>
<path d="M48.5861 12.4578C48.3443 13.2247 48.1094 13.9709 47.8744 14.7171C47.8261 14.8691 47.7086 14.8968 47.5843 14.9175C46.3544 15.1248 45.1177 15.2353 43.874 15.0557C43.4525 14.9935 43.038 14.883 42.6925 14.6066C42.1605 14.1644 42.0914 13.5771 42.1881 12.9415C42.4023 11.5458 42.8998 10.233 43.3212 8.89264C44.178 6.1704 45.0486 3.46197 45.8984 0.739726C45.9882 0.449537 46.1126 0.352808 46.4235 0.359717C47.4806 0.380445 48.5446 0.373536 49.6018 0.366626C49.8643 0.366626 49.9127 0.42881 49.8298 0.684452C49.5603 1.49283 49.3185 2.30813 49.0559 3.11651C48.9868 3.33069 49.0283 3.39288 49.2563 3.38597C49.9127 3.37215 50.5691 3.38597 51.2254 3.37906C51.4396 3.37215 51.4742 3.44124 51.4051 3.6347C51.1909 4.27726 50.9836 4.92673 50.7901 5.5762C50.7349 5.76966 50.6312 5.81802 50.4447 5.81111C49.7883 5.80421 49.1319 5.81111 48.4755 5.80421C48.3166 5.80421 48.1992 5.81111 48.137 6.01148C47.6395 7.63516 47.073 9.24501 46.617 10.8825C46.5617 11.0898 46.5133 11.3109 46.4995 11.5251C46.465 12.1054 46.7413 12.4094 47.3148 12.4509C47.5221 12.4647 47.7293 12.4647 47.9366 12.4647C48.137 12.4647 48.3305 12.4578 48.5861 12.4578Z" fill="white"/>
<path d="M0.0138185 0C0.152004 0 0.283279 0 0.421464 0C6.83325 0 13.245 0 19.6637 0C20.0783 0 20.0783 0 19.9332 0.3731C19.5186 1.45785 19.1179 2.54951 18.6964 3.62736C18.3164 4.58083 17.5633 5.05066 16.5822 5.18194C16.0986 5.24412 15.6218 5.18194 15.152 5.02302C10.205 3.39935 5.25794 1.77568 0.310916 0.158913C0.207278 0.124366 0.103639 0.0898203 0 0.0483647C0.00690925 0.0345462 0.00690925 0.0138185 0.0138185 0Z" fill="white"/>
<path d="M0.48999 6.57764C0.711086 6.57764 0.849271 6.57764 0.980547 6.57764C6.34212 6.57764 11.7106 6.57764 17.0722 6.57764C17.5351 6.57764 17.5282 6.57764 17.3624 7.01983C16.9962 7.98712 16.63 8.95442 16.2638 9.92171C15.8147 11.1239 14.3914 11.7665 13.0786 11.2897C8.94691 9.76971 4.82209 8.22895 0.697268 6.68819C0.655812 6.67437 0.614357 6.64673 0.48999 6.57764Z" fill="white"/>
<path d="M2.36279 11.6494C3.7861 11.6494 5.15413 11.6494 6.52216 11.6494C7.45491 11.6494 8.38766 11.6701 9.32041 11.6701C9.5415 11.6701 9.63132 11.6909 9.52768 11.9465C9.27895 12.5545 9.06476 13.1694 8.81603 13.7775C8.44293 14.6895 7.16472 15.2146 6.2527 14.5168C5.05049 13.5909 3.80683 12.7203 2.57698 11.8221C2.52171 11.7807 2.45952 11.7323 2.36279 11.6494Z" fill="white"/>
</svg>
