<svg width="21" height="27" viewBox="0 0 21 27" fill="none" xmlns="http://www.w3.org/2000/svg">
<path d="M20.0271 9.97646H18.3943V7.80641C18.3943 5.79274 17.5925 3.86155 16.1651 2.43767C14.7378 1.01379 12.8019 0.213867 10.7834 0.213867C8.7648 0.213867 6.82892 1.01379 5.40159 2.43767C3.97425 3.86155 3.17238 5.79274 3.17238 7.80641V9.97646H1.53958C1.39546 9.97716 1.25747 10.0348 1.1558 10.1367C1.05414 10.2386 0.997069 10.3765 0.99707 10.5203V24.0792C0.99707 24.6547 1.22625 25.2066 1.63421 25.6136C2.04216 26.0206 2.59546 26.2492 3.17238 26.2492H18.397C18.9734 26.2485 19.5261 26.0196 19.9334 25.6127C20.3408 25.2058 20.5696 24.6542 20.5696 24.0792V10.5203C20.5697 10.3765 20.5126 10.2386 20.4109 10.1367C20.3092 10.0348 20.1713 9.97716 20.0271 9.97646ZM12.4109 21.3075C12.4221 21.3837 12.4165 21.4615 12.3942 21.5353C12.372 21.609 12.3338 21.6771 12.2822 21.7345C12.2307 21.7919 12.1672 21.8373 12.0961 21.8675C12.0251 21.8976 11.9482 21.9119 11.871 21.9091H9.6957C9.61851 21.9119 9.54167 21.8976 9.4706 21.8675C9.39954 21.8373 9.336 21.7919 9.28448 21.7345C9.23296 21.6771 9.19474 21.609 9.1725 21.5353C9.15027 21.4615 9.14457 21.3837 9.15582 21.3075L9.49818 18.2311C9.22195 18.0314 8.99721 17.7691 8.84245 17.4658C8.6877 17.1625 8.60736 16.8269 8.60804 16.4866C8.60804 15.9111 8.83723 15.3591 9.24518 14.9522C9.65313 14.5452 10.2064 14.3166 10.7834 14.3166C11.3603 14.3166 11.9136 14.5452 12.3215 14.9522C12.7295 15.3591 12.9587 15.9111 12.9587 16.4866C12.96 16.827 12.8799 17.1629 12.7251 17.4662C12.5703 17.7696 12.3452 18.0318 12.0685 18.2311L12.4109 21.3075ZM15.134 9.97646H6.44326V7.80641C6.4982 6.69366 6.97999 5.64459 7.78888 4.87642C8.59778 4.10825 9.67181 3.67981 10.7886 3.67981C11.9054 3.67981 12.9795 4.10825 13.7884 4.87642C14.5973 5.64459 15.0791 6.69366 15.134 7.80641V9.97646Z" fill="white"/>
</svg>
