<svg width="12" height="14" viewBox="0 0 12 14" fill="none" xmlns="http://www.w3.org/2000/svg">
<path fill-rule="evenodd" clip-rule="evenodd" d="M0.960207 9.12512C1.57502 8.51031 2.40888 8.16492 3.27835 8.16492H8.72165C9.59112 8.16492 10.425 8.51031 11.0398 9.12512C11.6546 9.73993 12 10.5738 12 11.4433V12.8041C12 13.1116 11.7508 13.3608 11.4433 13.3608C11.1358 13.3608 10.8866 13.1116 10.8866 12.8041V11.4433C10.8866 10.8691 10.6585 10.3184 10.2525 9.91242C9.84649 9.50641 9.29583 9.27832 8.72165 9.27832H3.27835C2.70417 9.27832 2.15351 9.50641 1.7475 9.91242C1.34149 10.3184 1.1134 10.8691 1.1134 11.4433V12.8041C1.1134 13.1116 0.864159 13.3608 0.556701 13.3608C0.249244 13.3608 0 13.1116 0 12.8041V11.4433C0 10.5738 0.345397 9.73993 0.960207 9.12512Z" fill="#9CA2AC"/>
<path fill-rule="evenodd" clip-rule="evenodd" d="M5.99808 1.1134C4.80241 1.1134 3.83313 2.08268 3.83313 3.27835C3.83313 4.47402 4.80241 5.4433 5.99808 5.4433C7.19375 5.4433 8.16303 4.47402 8.16303 3.27835C8.16303 2.08268 7.19375 1.1134 5.99808 1.1134ZM2.71973 3.27835C2.71973 1.46777 4.18749 0 5.99808 0C7.80866 0 9.27643 1.46777 9.27643 3.27835C9.27643 5.08893 7.80866 6.5567 5.99808 6.5567C4.18749 6.5567 2.71973 5.08893 2.71973 3.27835Z" fill="#9CA2AC"/>
</svg>
