<svg width="13" height="14" viewBox="0 0 13 14" fill="none" xmlns="http://www.w3.org/2000/svg">
<path d="M5.33986 0C4.28373 0 3.25133 0.313177 2.37319 0.899927C1.49506 1.48668 0.810635 2.32065 0.406474 3.29638C0.00231367 4.27211 -0.103433 5.34578 0.102606 6.38161C0.308646 7.41744 0.817217 8.36891 1.56401 9.1157C2.3108 9.86249 3.26227 10.3711 4.2981 10.5771C5.33393 10.7831 6.4076 10.6774 7.38333 10.2732C8.35906 9.86907 9.19303 9.18465 9.77978 8.30652C10.3665 7.42838 10.6797 6.39598 10.6797 5.33985C10.6785 3.92401 10.1155 2.56651 9.11434 1.56536C8.11319 0.564215 6.75569 0.00122956 5.33986 0ZM5.33986 8.82237C4.65108 8.82237 3.97777 8.61812 3.40507 8.23546C2.83238 7.85279 2.38602 7.3089 2.12243 6.67255C1.85885 6.03621 1.78988 5.33599 1.92426 4.66045C2.05863 3.98491 2.39031 3.36438 2.87735 2.87734C3.36439 2.39031 3.98491 2.05863 4.66045 1.92426C5.33599 1.78988 6.03621 1.85885 6.67255 2.12243C7.3089 2.38601 7.8528 2.83238 8.23546 3.40507C8.61812 3.97777 8.82237 4.65108 8.82237 5.33985C8.82114 6.2631 8.45384 7.14817 7.80101 7.801C7.14818 8.45384 6.2631 8.82114 5.33986 8.82237Z" fill="#696969"/>
<path d="M12.7279 11.4181L10.8705 9.56073C10.6963 9.38647 10.4599 9.28857 10.2135 9.28857C9.96705 9.28857 9.73071 9.38647 9.55645 9.56073C9.3822 9.73498 9.2843 9.97133 9.2843 10.2178C9.2843 10.4642 9.3822 10.7005 9.55645 10.8748L11.4138 12.7321C11.5881 12.9064 11.8244 13.0043 12.0708 13.0043C12.3173 13.0043 12.5536 12.9064 12.7279 12.7321C12.9021 12.5579 13 12.3215 13 12.0751C13 11.8287 12.9021 11.5923 12.7279 11.4181Z" fill="#696969"/>
</svg>
