<svg width="39" height="12" viewBox="0 0 39 12" fill="none" xmlns="http://www.w3.org/2000/svg">
<path fill-rule="evenodd" clip-rule="evenodd" d="M28.4649 0.579204L28.0391 3.07859L27.7562 2.94542C27.1781 2.71218 26.4324 2.48742 25.4062 2.50358C24.177 2.50358 23.6066 3.01701 23.6066 3.49579C23.5997 4.03616 24.2731 4.39178 25.3716 4.92522C27.1842 5.74962 28.0198 6.74799 28.0083 8.05888C27.9837 10.4551 25.8405 12 22.5381 12C21.129 11.9861 19.7714 11.7075 19.0388 11.3857L19.4801 8.80322L19.8844 8.98565C20.9168 9.41595 21.5841 9.59068 22.8402 9.59068C23.7442 9.59068 24.7128 9.2389 24.722 8.4653C24.7266 7.96035 24.3146 7.6001 23.0923 7.03511C21.9 6.48319 20.3226 5.55718 20.3395 3.90068C20.3587 1.65763 22.5457 0.0934908 25.6491 0.0934908C26.8668 0.0934908 27.843 0.345199 28.4649 0.579204ZM36.4995 0.0934908L39 12H36.1337C36.1337 12 35.8503 10.6317 35.7582 10.2151C35.3078 10.2151 32.1581 10.2096 31.8045 10.2096C31.6828 10.5324 31.1546 12 31.1546 12H27.9105L32.4967 1.08172C32.8216 0.306561 33.3747 0.0934908 34.1146 0.0934908H36.4995ZM3.51699 1.58433C2.49681 1.01064 1.3221 0.551537 0 0.238698L0.0383246 0H5.19493C5.88869 0.0260119 6.45026 0.240993 6.64345 0.967032L7.76268 6.23674C7.6982 6.07517 7.62838 5.91518 7.55326 5.75696C7.68021 6.03012 7.78563 6.30345 7.86666 6.57355L8.1959 8.2256L11.2737 0.0934908H14.603L9.65364 11.9952L6.32739 12L3.51699 1.58433ZM32.6924 7.77357C32.9485 7.08666 33.9219 4.44236 33.9219 4.44236C33.9045 4.47495 34.1758 3.75226 34.3307 3.30545L34.54 4.33264C34.54 4.33264 35.1317 7.1765 35.2556 7.77357H32.6924ZM14.0485 12L15.9667 0.0934908H19.0388L17.1154 12H14.0485Z" fill="#16216A"/>
</svg>
