<svg width="34" height="25" viewBox="0 0 34 25" fill="none" xmlns="http://www.w3.org/2000/svg">
<path d="M0.293834 0.125977C0.522209 0.125977 0.739165 0.125977 0.96754 0.125977C11.5641 0.125977 22.1607 0.125977 32.7688 0.125977C33.4539 0.125977 33.4539 0.125977 33.2141 0.747845C32.529 2.55587 31.8667 4.37541 31.1701 6.17192C30.5421 7.76114 29.2975 8.54424 27.676 8.76304C26.8767 8.86669 26.0888 8.76304 25.3123 8.49817C17.1365 5.79189 8.96067 3.08561 0.78484 0.390847C0.613559 0.333266 0.442277 0.275686 0.270996 0.206589C0.282415 0.183557 0.282415 0.149009 0.293834 0.125977Z" fill="white"/>
<path d="M1.08203 11.0889C1.44743 11.0889 1.67581 11.0889 1.89276 11.0889C10.7537 11.0889 19.6261 11.0889 28.487 11.0889C29.2521 11.0889 29.2407 11.0889 28.9666 11.8259C28.3614 13.4382 27.7562 15.0505 27.151 16.6628C26.4088 18.6667 24.0566 19.7377 21.887 18.9431C15.0586 16.4094 8.24159 13.8413 1.42459 11.2731C1.35608 11.2501 1.28757 11.204 1.08203 11.0889Z" fill="white"/>
<path d="M4.17578 19.543C6.52804 19.543 8.78895 19.543 11.0499 19.543C12.5914 19.543 14.1329 19.5775 15.6745 19.5775C16.0399 19.5775 16.1883 19.6121 16.017 20.0382C15.6059 21.0516 15.252 22.0765 14.8409 23.09C14.2243 24.6101 12.1118 25.4853 10.6045 24.3222C8.61767 22.779 6.5623 21.328 4.52976 19.8309C4.43841 19.7618 4.33564 19.6812 4.17578 19.543Z" fill="white"/>
</svg>
